<svg xmlns="http://www.w3.org/2000/svg" width="{{ .width }}" height="{{ .height }}" fill="{{ .fill }}" viewBox="0 0 32 32">
<path fill="{{ .fill }}" d="M16 0c-4.347 0-4.889.019-6.596.096-1.704.078-2.865.349-3.882.744-1.052.406-1.944.957-2.834 1.847-0.89.89-1.441 1.782-1.847 2.834-0.395 1.017-0.666 2.178-0.744 3.882-0.077 1.707-0.096 2.249-0.096 6.596s0.019 4.889 0.096 6.596c0.078 1.704 0.349 2.865 0.744 3.882 0.406 1.052 0.957 1.944 1.847 2.834 0.89 0.89 1.782 1.441 2.834 1.847 1.017 0.395 2.178 0.666 3.882 0.744 1.707 0.077 2.249 0.096 6.596 0.096s4.889-0.019 6.596-0.096c1.704-0.078 2.865-0.349 3.882-0.744 1.052-0.406 1.944-0.957 2.834-1.847 0.89-0.89 1.441-1.782 1.847-2.834 0.395-1.017 0.666-2.178 0.744-3.882 0.077-1.707 0.096-2.249 0.096-6.596s-0.019-4.889-0.096-6.596c-0.078-1.704-0.349-2.865-0.744-3.882-0.406-1.052-0.957-1.944-1.847-2.834-0.89-0.89-1.782-1.441-2.834-1.847-1.017-0.395-2.178-0.666-3.882-0.744-1.707-0.077-2.249-0.096-6.596-0.096zM16 2.883c4.271 0 4.778.019 6.465.093 1.558 0.071 2.406 0.331 2.969 0.55 0.747 0.29 1.28 0.636 1.841 1.197s0.907 1.094 1.197 1.841c0.219 0.563 0.479 1.411 0.55 2.969 0.074 1.687 0.093 2.194 0.093 6.465s-0.019 4.778-0.093 6.465c-0.071 1.558-0.331 2.406-0.55 2.969-0.29 0.747-0.636 1.28-1.197 1.841s-1.094 0.907-1.841 1.197c-0.563 0.219-1.411 0.479-2.969 0.55-1.687 0.074-2.194 0.093-6.465 0.093s-4.778-0.019-6.465-0.093c-1.558-0.071-2.406-0.331-2.969-0.55-0.747-0.29-1.28-0.636-1.841-1.197s-0.907-1.094-1.197-1.841c-0.219-0.563-0.479-1.411-0.55-2.969-0.074-1.687-0.093-2.194-0.093-6.465s0.019-4.778 0.093-6.465c0.071-1.558 0.331-2.406 0.55-2.969 0.29-0.747 0.636-1.28 1.197-1.841s1.094-0.907 1.841-1.197c0.563-0.219 1.411-0.479 2.969-0.55 1.687-0.074 2.194-0.093 6.465-0.093zM16 7.784c-4.538 0-8.216 3.678-8.216 8.216s3.678 8.216 8.216 8.216 8.216-3.678 8.216-8.216-3.678-8.216-8.216-8.216zM16 21.333c-2.946 0-5.333-2.387-5.333-5.333s2.387-5.333 5.333-5.333 5.333 2.387 5.333 5.333-2.387 5.333-5.333 5.333zM24.538 7.462c0 1.060-0.859 1.919-1.919 1.919s-1.919-0.859-1.919-1.919 0.859-1.919 1.919-1.919 1.919 0.859 1.919 1.919z"></path>
</svg>
